<?xml version="1.0" encoding="utf-8"?>
<!-- Generator: Adobe Illustrator 24.0.1, SVG Export Plug-In . SVG Version: 6.00 Build 0)  -->
<svg version="1.1" id="Layer_1" xmlns="http://www.w3.org/2000/svg" xmlns:xlink="http://www.w3.org/1999/xlink" x="0px" y="0px"
	 viewBox="0 0 96 96" style="enable-background:new 0 0 96 96;" xml:space="preserve">
<style type="text/css">
	.st0{fill:#F9F9F9;}
	.st1{fill:#ED4C5C;}
	.st2{fill:#FFE62E;}
</style>
<g id="XMLID_2_">
	<path id="XMLID_4_" class="st0" d="M84.3,18.3h-6.6v-6.6c-17.2-14.2-42.3-14.2-59.5,0v6.6h-6.6c-14.2,17.2-14.2,42.3,0,59.5h6.6
		v6.6c17.2,14.2,42.3,14.2,59.5,0v-6.6h6.6C98.6,60.6,98.6,35.4,84.3,18.3"/>
	<path id="XMLID_5_" class="st1" d="M48,41.4L18.3,11.8c-1.3,1-2.3,2-3.5,3.2s-2.2,2.3-3.2,3.5L41.4,48L11.6,77.7
		c1,1.3,2,2.3,3.2,3.5c1.2,1.2,2.3,2.2,3.5,3.2L48,54.6l29.7,29.7c1.3-1,2.3-2,3.5-3.2c1.2-1.2,2.2-2.3,3.2-3.5L54.5,48l29.7-29.7
		c-1-1.3-2-2.3-3.2-3.5c-1.2-1.2-2.3-2.2-3.5-3.2L48,41.4"/>
	<path id="XMLID_6_" class="st1" d="M56,14.6c2,7.9,1,17.9-7.9,23.1c-9-5.5-10-15.3-7.9-23.1C42,12.6,51.6,11.5,56,14.6"/>
	<path id="XMLID_7_" class="st2" d="M55.7,18.5c0-0.1-0.1-0.3-0.3-0.1c-0.6,0.1-2.3,0.1-2.9-0.3c0.7,0.3,1.9-0.3,1.9-1
		c0-0.6-0.7-1.3-2.5-0.7c-1.6,0.3-3.6,0.1-3.6-0.3c0-0.4,1.4-0.6,2.2-0.4c0.7,0.1,1.3,0.1,2.6-0.3c-0.3,0.1-1.4,0.1-2.3,0
		c-0.7-0.3-3-0.3-3,1c0,1.2,2.2,1.2,4.2,0.7c1.2-0.1,1.7,0,1.7,0.3c0,0.3-1.2,0.4-1.9,0.4s-1.6-0.1-2.5,0.1
		c-1.7,0.6-3.6,0.1-4.2-0.6c0-0.1,0-0.1,0-0.3c0.1-0.1,0.3-0.3,0.3-0.4c0.1-0.4,0-0.4-0.4-0.1c-0.1-0.1-0.4-0.3-1-0.3
		c-0.4,0-0.7,0.1-1,0.3c-0.4-0.1-0.6-0.1-0.4,0.1c0,0.1,0.1,0.4,0.3,0.4c0,0.6,0.6,1.6,0.6,1.6c-1-0.1-2-1.7-2.3-2.5
		c-0.1-0.3-0.4-0.4-0.6-0.4c-0.1,0-0.3,0.1-0.1,0.3c0.1,0.1,0.3,0.1,0.3,0.4c-0.1-0.3-0.4-0.3-0.6-0.1c-0.1,0.1,0,0.3,0.1,0.3
		c0.3,0,0.1,0.3,0.3,0.4c-0.3-0.3-0.4-0.3-0.6-0.1c-0.1,0.1,0,0.3,0.1,0.3c0.3,0,1.3,1.4,3.6,2.6c0,0.1-0.4,0.1-0.7,0.1
		c-0.6,0-1.3,0-1.7-0.4c-0.3-0.3-0.7-0.6-1.2-0.4c-0.1,0.1,0,0.3,0.1,0.3c0.1,0,0.3,0,0.4,0.1c-0.3-0.1-0.4,0-0.6,0
		c-0.1,0.1,0,0.3,0.1,0.3s0.4-0.1,0.6,0c-0.1,0-0.4,0-0.4,0.1s0,0.3,0.1,0.3c0.3,0,2.9,1.6,4.9-0.3c0.3,0,2.3,0,3.2-0.6
		C49,20,49.2,20,49.8,20c0.4,0.1,0.7,0.1,0.4,0.3c-0.1,0.1-0.6,0-1,0c-0.7,0-1.3-0.6-1.4-0.3c-0.1,0.1,0,0.3,0.3,0.3
		c-0.3,0-0.6,0-0.4,0.3c0.1,0.4,0.4-0.1,0.6,0.1c-0.1,0-0.3,0-0.3,0.1s0.3,0.3,0.6,0c0.1-0.1,0.4-0.1,0.6-0.1c0.6,0,1.9,0.3,2.3-0.1
		c0.1-0.1,0-0.3-0.1-0.4c-0.1-0.1-0.1-0.3-0.1-0.7c0.4,0.1,1.2,0.1,2,0c1.2-0.1,1.4,0.1,1.4,0.6c0,0.3-0.1,0.3-0.3,0.3
		c-0.6,0-0.7-0.1-1.2-0.1c-0.1,0-0.3,0.3,0,0.3c-0.1,0.1-0.1,0.3,0,0.3c0.1,0,0.3,0,0.4,0c-0.1,0.1-0.4,0.3-0.3,0.4
		c0,0.1,0.3,0.1,0.4,0s0.4-0.3,0.7-0.4C55.7,20.7,56,19.4,55.7,18.5"/>
	<path id="XMLID_8_" class="st2" d="M55.4,25.5c0-0.1-0.1-0.3-0.3-0.1c-0.6,0.1-2.2,0.1-2.6-0.3c0.7,0.3,1.7-0.3,1.7-1
		c0-0.6-0.7-1.2-2.3-0.7c-1.6,0.3-3.5,0.1-3.5-0.3s1.4-0.6,2-0.4s1.3,0.1,2.5-0.3c-0.3,0.1-1.4,0.1-2.2,0c-0.7-0.1-2.9-0.1-2.9,0.7
		c0,1.2,2.2,1,3.9,0.7c1.2-0.1,1.7,0,1.7,0.3s-1,0.4-1.7,0.3c-0.7-0.1-1.6-0.1-2.5,0.1c-1.6,0.4-3.5,0.1-3.9-0.6c0,0,0-0.1,0-0.3
		c0.1-0.1,0.1-0.3,0.3-0.4c0.1-0.3,0-0.4-0.4-0.1c-0.1-0.1-0.4-0.3-0.7-0.3c-0.4,0-0.6,0.1-0.7,0.3c-0.4-0.1-0.6-0.1-0.4,0.1
		c0,0.1,0.1,0.4,0.3,0.4c0,0.6,0.6,1.4,0.6,1.6c-0.7-0.1-1.9-1.7-2.2-2.3c-0.1-0.3-0.4-0.4-0.6-0.4c-0.1,0-0.1,0.1-0.1,0.3
		s0.3,0.1,0.3,0.4c-0.1-0.1-0.4-0.3-0.6-0.1c-0.1,0.1,0,0.3,0.1,0.3c0.3,0,0.1,0.3,0.3,0.4c-0.6-0.3-0.7-0.3-0.9-0.1s0,0.3,0.1,0.3
		c0.3,0,1.3,1.3,3.5,2.5c0,0.1-0.3,0.1-0.6,0.1c-0.4,0-1.3,0-1.6-0.4c-0.3-0.3-0.7-0.6-1.2-0.3c-0.1,0.1,0,0.3,0.1,0.3
		c0.1,0,0.3,0,0.4,0.1c-0.1-0.1-0.4,0-0.6,0c-0.1,0.1,0,0.3,0.1,0.3s0.4-0.1,0.6,0c-0.1,0-0.3,0-0.4,0c-0.1,0.1,0,0.3,0.1,0.3
		c0.3,0,2.6,1.6,4.8-0.3c0.3,0,2.2,0,3-0.4c0.4,0.6,0.6,0.4,1.2,0.6c0.4,0.1,0.7,0.1,0.4,0.3c-0.1,0.1-0.4,0-1,0
		c-0.7,0-1.2-0.4-1.4-0.3c-0.1,0.1,0,0.3,0.3,0.3c-0.3,0-0.4,0-0.4,0.1c0.1,0.4,0.4,0,0.6,0.1c-0.1,0-0.3,0-0.3,0.1
		c0,0.1,0.3,0.3,0.6,0c0.1-0.1,0.4-0.1,0.6-0.1c0.4,0,1.7,0.3,2.2-0.1c0.1-0.1,0-0.3-0.1-0.4c-0.1-0.1-0.1-0.3-0.1-0.7
		c0.4,0.1,1.2,0.1,1.9,0c1-0.1,1.3,0.1,1.3,0.6c0,0.3-0.1,0.3-0.3,0.3c-0.4,0-0.7-0.1-1-0.1s-0.1,0.3,0,0.3c-0.1,0.1-0.1,0.3,0,0.3
		s0.3,0,0.4,0c-0.1,0.1-0.4,0.3-0.3,0.4c0,0.1,0.3,0.1,0.4,0c0.1-0.1,0.4-0.3,0.6-0.3C55.1,27.5,55.7,26.2,55.4,25.5"/>
	<path id="XMLID_9_" class="st2" d="M53.2,31.4c0-0.1-0.1-0.1-0.3-0.1c-0.4,0.1-1.6,0-2-0.1c0.6,0.1,1.3-0.3,1.3-0.6
		c0-0.4-0.6-0.7-1.7-0.6c-1.2,0.3-2.5,0.1-2.5-0.1c0-0.3,1-0.4,1.6-0.3c0.4,0,1,0.1,1.9-0.1c-0.1,0.1-1,0.1-1.6,0
		c-0.6-0.1-2-0.1-2,0.6s1.6,0.7,3,0.4c0.7-0.1,1.3,0,1.3,0.1c0,0.3-0.7,0.3-1.3,0.3s-1.2,0-1.7,0.1c-1.3,0.3-2.5,0.1-3-0.4
		c0,0,0-0.1,0-0.3c0.1-0.1,0.1-0.3,0.1-0.3c0.1-0.3,0-0.3-0.3-0.1c-0.1-0.1-0.3-0.1-0.6-0.1s-0.4,0-0.6,0.1
		c-0.3-0.1-0.4-0.1-0.3,0.1c0,0.1,0.1,0.3,0.1,0.3c0,0.4,0.4,1.2,0.4,1.2c-0.6,0-1.4-1.3-1.6-1.7c0-0.1-0.3-0.3-0.4-0.3
		c-0.1,0-0.1,0.1,0,0.1c0.1,0.1,0.3,0.1,0.3,0.3c-0.1-0.1-0.3-0.1-0.4-0.1c0,0,0,0.1,0.1,0.1c0.1,0,0.1,0.1,0.1,0.3
		c-0.1-0.1-0.3-0.1-0.4,0c0,0,0,0.1,0.1,0.1s1,1,2.5,1.9c0,0.1-0.3,0.1-0.4,0.1c-0.3,0-1,0-1.2-0.3c-0.1-0.3-0.6-0.4-0.7-0.3
		c-0.1,0.1,0,0.3,0.1,0.1c0.1-0.1,0.1,0,0.3,0.1c-0.1,0-0.3,0-0.4,0c-0.1,0.1,0,0.3,0.1,0.1c0.1,0,0.3-0.1,0.4,0c-0.1,0-0.3,0-0.3,0
		s0,0.1,0.1,0.1c0.3,0,2,1.2,3.5-0.1c0.1,0,1.7,0,2.2-0.4c0,0.7,0.1,0.7,0.4,0.7s0.4,0,0.3,0.3c0,0-0.4,0-0.6,0
		c-0.6,0-0.7-0.4-1-0.1c-0.1,0.1,0,0.3,0.1,0.3c-0.1,0-0.3,0-0.3,0.1c0,0.3,0.3,0,0.4,0c-0.1,0-0.3,0-0.3,0.1c0,0.1,0.1,0.1,0.4,0
		C48.9,33,49,33,49.2,33c0.4,0,1.3,0.1,1.6-0.1c0.1-0.1,0-0.1-0.1-0.3c-0.1-0.1-0.1-0.3-0.1-0.4c0.3,0,0.7,0,1.4,0
		c0.7-0.1,1,0.1,1,0.4c0,0.1-0.1,0.3-0.1,0.3c-0.4,0-0.6-0.1-0.7-0.1s-0.1,0.1,0,0.3c-0.1,0-0.1,0.1,0,0.1c0,0,0.1,0,0.3,0
		c-0.1,0-0.3,0.1-0.1,0.3c0,0,0.1,0.1,0.3,0c0.1-0.1,0.3-0.3,0.4-0.3C53.2,33,53.7,32,53.2,31.4"/>
	<path id="XMLID_10_" class="st2" d="M48,12.9c3.3,0,6.2,1,8.1,2c0.3-2.9,1.6-5.5,3.2-7.5c-1.6,0-2.2,0.7-2.2,1.6
		c-0.3-1.2-1.9-1.2-2.3-0.4c1.7,1.2,0.3,3.2-1.2,2.6c-0.7-0.1-1.2-0.6-1.3-1.4c0.4,0,0.7-0.4,0.7-1c0-0.4-0.4-0.7-1-0.7
		c-0.4,0-0.7,0.4-0.7,1c0,0.3,0.1,0.6,0.4,0.7c-0.4,0.7-1.4,1-1.9,0.7c-0.7-0.1-1.2-1-1.2-1.6c0-1.7,1.6-1.9,2-1.6
		c0-1.2-1.7-2-2.3-1.2C49,5,49,3.5,48,2.5c-1.2,1.2-1.2,2.5-0.4,3.6c-0.4-1-2.3,0-2.3,1.2c0.4-0.3,2,0,2,1.6c0,0.6-0.3,1.4-1.2,1.6
		c-0.6,0.1-1.4,0-1.9-0.7c0.4-0.1,0.6-0.6,0.4-1.2c-0.1-0.4-0.6-0.6-1.2-0.4c-0.4,0.1-0.6,0.6-0.4,1.2c0.1,0.3,0.4,0.4,0.7,0.4
		c-0.1,0.7-0.4,1.3-1.3,1.4c-1.6,0.4-2.9-1.6-1.2-2.6C41,8,39.4,8,39.1,9c0-0.7-0.6-1.7-2.2-1.6c1.4,2,2.6,4.9,3.2,7.5
		C41.7,13.9,44.7,12.9,48,12.9"/>
</g>
</svg>
